<?xml version="1.0" encoding="UTF-8"?>
<!DOCTYPE svg PUBLIC "-//W3C//DTD SVG 1.1//EN" "http://www.w3.org/Graphics/SVG/1.1/DTD/svg11.dtd">
<!-- Creator: CorelDRAW 2020 (64-Bit) -->
<svg xmlns="http://www.w3.org/2000/svg" xml:space="preserve" width="500px" height="500px" version="1.1" style="shape-rendering:geometricPrecision; text-rendering:geometricPrecision; image-rendering:optimizeQuality; fill-rule:evenodd; clip-rule:evenodd"
viewBox="0 0 500 500"
 xmlns:xlink="http://www.w3.org/1999/xlink"
 xmlns:xodm="http://www.corel.com/coreldraw/odm/2003">
 <defs>
  <style type="text/css">
   <![CDATA[
    .str0 {stroke:black;stroke-width:1.41;stroke-miterlimit:22.9256}
    .str1 {stroke:black;stroke-width:1.41;stroke-miterlimit:22.9256}
    .str2 {stroke:black;stroke-width:0.1;stroke-miterlimit:22.9256}
    .str3 {stroke:#1A1A1A;stroke-width:0.1;stroke-miterlimit:22.9256}
    .fil0 {fill:none}
    .fil4 {fill:black}
    .fil2 {fill:#B3B3B3}
    .fil1 {fill:#CCCCCC}
    .fil3 {fill:#E6E6E6}
   ]]>
  </style>
 </defs>
 <g id="Capa_x0020_1">
  <metadata id="CorelCorpID_0Corel-Layer"/>
  <g id="_2366556205328">
   <path class="fil0 str0" d="M222.15 107.6l0 0.09m0 18.76l0 111.74m-137.08 0l0 -111.74m0 -18.76l0 -0.66"/>
   <path class="fil0 str0" d="M110.51 83.07c11.78,-2.66 26.77,-4.25 43.1,-4.25 15.14,0 29.13,1.37 40.48,3.69m0 30.87c-4.49,0.91 -9.38,1.68 -14.6,2.28m-51.76 0c-6.26,-0.71 -12.05,-1.68 -17.22,-2.84"/>
   <path class="fil0 str0" d="M222.15 238.19c0,4.52 -5.61,8.67 -14.98,11.94m-9.55 2.73c-11.91,2.78 -27.26,4.46 -44.01,4.46 -17.93,0 -34.25,-1.92 -46.47,-5.07m-9.54 -3.03c-7.9,-3.12 -12.53,-6.92 -12.53,-11.03"/>
   <path class="fil0 str0" d="M235.2 97.94l0 17.72 -1.06 0m-54.65 0l-51.76 0m-54.1 -1.11l0 -16.61"/>
   <path class="fil0 str0" d="M194.09 82.51c24.54,3.04 41.11,8.81 41.11,15.43 0,9.79 -36.17,17.72 -80.78,17.72 -44.62,0 -80.79,-7.93 -80.79,-17.72 0,-6.23 14.69,-11.71 36.88,-14.87"/>
   <path class="fil0 str0" d="M222.02 107.64c0.05,0.02 0.09,0.03 0.13,0.05m11.99 7.97c0.17,0.46 0.25,0.93 0.25,1.41 0,9.78 -36.17,17.71 -80.78,17.71 -44.62,0 -80.79,-7.93 -80.79,-17.71 0,-0.86 0.28,-1.7 0.81,-2.52m11.44 -6.86c0.3,-0.11 0.61,-0.22 0.93,-0.32"/>
   <g>
    <path class="fil0 str1" d="M107.14 252.25l0 11.17 -9.54 0 0 -14.2m109.57 0.91l0 13.29 -9.55 0 0 -10.56m12.4 -3.8c-15.99,5.18 -36,8.26 -57.72,8.26 -20.37,0 -39.24,-2.71 -54.7,-7.32"/>
   </g>
  </g>
  <path class="fil1 str2" d="M153.61 134.78c28.9,0 54.26,-3.33 68.54,-8.33 7.76,-2.72 12.24,-5.94 12.24,-9.38 0,-0.48 -0.08,-0.95 -0.25,-1.41l1.06 0 0 -17.72c0,3.56 -4.79,6.88 -13.05,9.66l0 0.09c-0.04,-0.02 -0.08,-0.03 -0.13,-0.05 -7.07,2.37 -16.66,4.34 -27.93,5.74 -11.72,1.45 -25.26,2.28 -39.67,2.28 -16.19,0 -31.27,-1.05 -43.91,-2.84 -9.86,-1.41 -18.24,-3.27 -24.51,-5.45 -0.32,0.1 -0.63,0.21 -0.93,0.32l0 -0.66c-7.27,-2.65 -11.44,-5.76 -11.44,-9.09l0 16.61c-0.53,0.82 -0.81,1.66 -0.81,2.52 0,3.44 4.49,6.66 12.25,9.38 14.27,5 39.63,8.33 68.54,8.33z"/>
  <path class="fil2 str3" d="M222.15 238.19l0 -111.74c-14.28,5 -39.64,8.33 -68.54,8.33 -28.91,0 -54.27,-3.33 -68.54,-8.33l0 111.74c0,4.11 4.63,7.91 12.53,11.03l0 0.78c3.05,0.91 6.24,1.75 9.54,2.5 13.43,3.08 28.81,4.82 45.16,4.82 0.21,0 0.43,0 0.64,0 21.47,-0.06 41.25,-3.13 57.08,-8.26 7.65,-3.09 12.13,-6.83 12.13,-10.87z"/>
  <path class="fil3 str2" d="M154.42 115.66c14.41,0 27.95,-0.83 39.67,-2.28 11.27,-1.4 20.86,-3.37 27.93,-5.74 0.05,-0.01 0.09,-0.03 0.13,-0.04 8.26,-2.78 13.05,-6.1 13.05,-9.66 0,-6.62 -16.57,-12.39 -41.11,-15.43 -11.35,-2.32 -25.34,-3.69 -40.48,-3.69 -16.33,0 -31.32,1.59 -43.1,4.25 -22.19,3.16 -36.88,8.64 -36.88,14.87 0,3.33 4.17,6.44 11.44,9.09 0.3,0.12 0.61,0.23 0.93,0.34 6.27,2.18 14.65,4.04 24.51,5.45 12.64,1.79 27.72,2.84 43.91,2.84z"/>
  <path class="fil4 str2" d="M107.14 252.5c-3.3,-0.75 -6.49,-1.59 -9.54,-2.5l0 13.42 9.54 0 0 -10.92z"/>
  <path class="fil4 str2" d="M197.8 253.11c3.24,-0.75 6.37,-1.59 9.37,-2.5l0 13.42 -9.37 0 0 -10.92z"/>
 </g>
</svg>
